<svg xmlns="http://www.w3.org/2000/svg" width="3000" height="2451" fill="none" viewBox="0 0 3000 2451">
  <g clip-path="url(#a)">
    <path fill="#000" d="M0 1224.56c0 40.38 17.77 77.54 50.08 108.23l1072.7 1071.09c32.31 30.69 66.23 45.23 105.01 45.23 79.16 0 142.16-58.16 142.16-138.93 0-38.78-14.54-77.55-40.39-101.78l-361.871-368.34-639.741-583.19-33.925 79.16 520.195 32.31H2857.84c84 0 142.16-59.78 142.16-143.78 0-84.01-58.16-143.78-142.16-143.78H814.218l-520.195 32.31 33.925 80.77 639.741-584.813 361.871-368.336c25.85-25.848 40.39-63.005 40.39-101.777 0-80.776-63-138.934-142.16-138.934-38.78 0-72.7 12.924-108.24 48.465L50.08 1116.32C17.77 1147.01 0 1184.17 0 1224.56Z"/>
  </g>
  <defs>
    <clipPath id="a">
      <path fill="#fff" d="M0 0h3000v2450.73H0z"/>
    </clipPath>
  </defs>
</svg>
