<svg xmlns="http://www.w3.org/2000/svg" width="3300" height="3300" fill="none" viewBox="0 0 3300 3300">
  <path fill="#fff" d="M1649.5 3150c819.97 0 1502.36-680.52 1502.36-1500.5 0-819.975-684.24-1500.5-1504.22-1500.5C829.523 149 149 829.525 149 1649.5 149 2469.48 831.385 3150 1649.5 3150Zm0-282.62c-674.947 0-1214.158-541.08-1214.158-1217.88 0-676.804 537.352-1217.877 1212.298-1217.877 676.8 0 1219.74 541.073 1219.74 1217.877 0 676.8-541.07 1217.88-1217.88 1217.88Z"/>
  <path fill="#fff" d="M1489.6 2341.18c53.92 0 100.4-26.03 133.87-78.09l639.62-1011.49c20.45-33.47 40.9-70.66 40.9-107.85 0-74.37-65.07-120.85-135.73-120.85-42.76 0-83.67 24.17-115.28 74.37l-570.82 925.96-256.59-345.84c-40.91-53.92-78.1-66.94-122.72-66.94-72.51 0-128.296 57.64-128.296 132.02 0 35.32 14.874 70.65 37.186 102.26l334.68 418.36c42.77 55.78 87.4 78.09 143.18 78.09Z"/>
</svg>
