<svg xmlns="http://www.w3.org/2000/svg" width="3213" height="2722" fill="none" viewBox="0 0 3213 2722">
  <path fill="#fff" d="M2736.93 2722c315.51 0 476.07-156.83 476.07-470.47V470.469C3213 156.824 3052.44 0 2736.93 0H1452.48c-175.5 0-330.45 50.409-455.536 181.092L145.621 1071.62C46.673 1174.3 0 1265.78 0 1359.13s44.807 184.83 145.621 287.51l853.189 890.53c125.09 130.68 280.04 182.96 455.53 182.96l1282.59 1.87Zm-3.73-270.71H1448.74c-108.28 0-173.62-20.54-246.43-97.08l-847.593-883.06c-46.674-48.54-59.743-80.28-59.743-112.02 0-31.74 14.939-63.48 59.743-112.02l845.723-881.191c72.81-76.542 140.02-95.212 246.44-95.212H2733.2c134.42 0 209.09 72.81 209.09 212.83V2238.46c0 141.89-74.67 212.83-209.09 212.83Z"/>
  <path fill="#fff" d="M1385.27 1988.29c35.47 0 69.08-14.94 93.35-41.07l397.66-399.53 399.52 399.53c22.4 24.27 56.01 41.07 93.35 41.07 74.67 0 132.55-61.61 132.55-136.29 0-37.33-13.07-67.21-39.21-93.35L2064.83 1361l399.53-401.393c28-26.137 39.2-56.01 39.2-91.481 0-74.676-57.87-132.553-132.55-132.553-33.6 0-63.47 11.203-89.61 39.206l-405.12 401.391-401.4-399.525c-24.27-26.137-54.14-37.336-89.61-37.336-74.68 0-134.42 56.006-134.42 130.683 0 35.474 14.94 67.209 41.07 91.481L1689.58 1361l-397.66 399.52c-26.13 24.27-41.07 56.01-41.07 91.48 0 74.68 59.74 136.29 134.42 136.29Z"/>
</svg>
