<svg xmlns="http://www.w3.org/2000/svg" width="2725" height="2731" fill="none" viewBox="0 0 2725 2731">
  <path fill="#fff" d="M1518.5 2666.5c41.2-41.21 62.89-97.6 60.73-156.16l-2.18-926.12h928.3c54.21 2.17 112.78-17.35 156.16-60.73 86.75-86.75 82.41-225.57-4.34-312.32-43.38-43.38-93.27-62.9-154-62.9h-923.95l-2.17-930.454c2.17-62.897-19.52-110.617-60.72-151.824-86.76-86.755-221.23-86.755-307.99 0-39.04 39.04-60.72 86.755-58.56 149.652l-4.34 936.966-930.456 2.17c-58.558-2.17-106.273 19.52-147.48 60.73-86.76 86.76-91.1 221.23-4.344 307.98 41.212 41.21 95.434 60.73 153.996 58.56l926.124 2.17 2.16 926.12c-2.16 58.56 17.35 112.79 58.56 153.99 86.76 86.76 227.74 88.93 314.5 2.17Z"/>
</svg>
